<svg xmlns="http://www.w3.org/2000/svg" xmlns:xlink="http://www.w3.org/1999/xlink" width="500" zoomAndPan="magnify" viewBox="0 0 375 374.999991" height="500" preserveAspectRatio="xMidYMid meet" version="1.0"><defs><clipPath id="edacf26416"><path d="M 93 67 L 163 67 L 163 137 L 93 137 Z M 93 67 " clip-rule="nonzero"/></clipPath><clipPath id="e5d55fa6e4"><path d="M 144.9375 59.539062 L 170.226562 119 L 110.765625 144.289062 L 85.476562 84.828125 Z M 144.9375 59.539062 " clip-rule="nonzero"/></clipPath><clipPath id="b9ff1ca602"><path d="M 154.195312 81.953125 L 160.601562 97.011719 C 163.09375 102.867188 163.15625 109.476562 160.773438 115.378906 C 158.394531 121.28125 153.765625 126 147.910156 128.492188 L 132.851562 134.894531 C 126.996094 137.386719 120.386719 137.449219 114.484375 135.070312 C 108.582031 132.6875 103.863281 128.0625 101.375 122.203125 L 94.96875 107.144531 C 92.476562 101.289062 92.414062 94.679688 94.796875 88.777344 C 97.175781 82.875 101.804688 78.160156 107.660156 75.667969 L 122.71875 69.261719 C 128.574219 66.769531 135.183594 66.707031 141.085938 69.089844 C 146.988281 71.46875 151.707031 76.097656 154.195312 81.953125 Z M 154.195312 81.953125 " clip-rule="nonzero"/></clipPath><clipPath id="5f59f91cbe"><path d="M 0 0 L 70 0 L 70 70 L 0 70 Z M 0 0 " clip-rule="nonzero"/></clipPath><clipPath id="f4db64c44e"><path d="M 51.9375 -7.460938 L 77.226562 52 L 17.765625 77.289062 L -7.523438 17.828125 Z M 51.9375 -7.460938 " clip-rule="nonzero"/></clipPath><clipPath id="30ce16e184"><path d="M 61.195312 14.953125 L 67.601562 30.011719 C 70.09375 35.867188 70.15625 42.476562 67.773438 48.378906 C 65.394531 54.28125 60.765625 59 54.910156 61.492188 L 39.851562 67.894531 C 33.996094 70.386719 27.386719 70.449219 21.484375 68.070312 C 15.582031 65.6875 10.863281 61.0625 8.375 55.203125 L 1.96875 40.144531 C -0.523438 34.289062 -0.585938 27.679688 1.796875 21.777344 C 4.175781 15.875 8.804688 11.160156 14.660156 8.667969 L 29.71875 2.261719 C 35.574219 -0.230469 42.183594 -0.292969 48.085938 2.089844 C 53.988281 4.46875 58.707031 9.097656 61.195312 14.953125 Z M 61.195312 14.953125 " clip-rule="nonzero"/></clipPath><clipPath id="6a2db03aa4"><rect x="0" width="70" y="0" height="70"/></clipPath><clipPath id="6e65cd6318"><path d="M 33 92 L 104 92 L 104 162 L 33 162 Z M 33 92 " clip-rule="nonzero"/></clipPath><clipPath id="b772cdde45"><path d="M 85.707031 84.730469 L 111 144.191406 L 51.539062 169.480469 L 26.25 110.019531 Z M 85.707031 84.730469 " clip-rule="nonzero"/></clipPath><clipPath id="99fa3e07d6"><path d="M 94.96875 107.144531 L 101.375 122.203125 C 103.863281 128.0625 103.925781 134.667969 101.546875 140.570312 C 99.167969 146.476562 94.539062 151.191406 88.683594 153.683594 L 73.625 160.085938 C 67.765625 162.578125 61.160156 162.640625 55.257812 160.261719 C 49.351562 157.878906 44.636719 153.253906 42.144531 147.394531 L 35.742188 132.335938 C 33.25 126.480469 33.1875 119.875 35.566406 113.96875 C 37.949219 108.066406 42.574219 103.351562 48.433594 100.859375 L 63.492188 94.453125 C 69.347656 91.964844 75.953125 91.902344 81.859375 94.28125 C 87.761719 96.660156 92.476562 101.289062 94.96875 107.144531 Z M 94.96875 107.144531 " clip-rule="nonzero"/></clipPath><clipPath id="93cfec5979"><path d="M 0.078125 0 L 71 0 L 71 70 L 0.078125 70 Z M 0.078125 0 " clip-rule="nonzero"/></clipPath><clipPath id="a11dc0218f"><path d="M 52.707031 -7.269531 L 78 52.191406 L 18.539062 77.480469 L -6.75 18.019531 Z M 52.707031 -7.269531 " clip-rule="nonzero"/></clipPath><clipPath id="6564f70f1e"><path d="M 61.96875 15.144531 L 68.375 30.203125 C 70.863281 36.0625 70.925781 42.667969 68.546875 48.570312 C 66.167969 54.476562 61.539062 59.191406 55.683594 61.683594 L 40.625 68.085938 C 34.765625 70.578125 28.160156 70.640625 22.257812 68.261719 C 16.351562 65.878906 11.636719 61.253906 9.144531 55.394531 L 2.742188 40.335938 C 0.25 34.480469 0.1875 27.875 2.566406 21.96875 C 4.949219 16.066406 9.574219 11.351562 15.433594 8.859375 L 30.492188 2.453125 C 36.347656 -0.0351562 42.953125 -0.0976562 48.859375 2.28125 C 54.761719 4.660156 59.476562 9.289062 61.96875 15.144531 Z M 61.96875 15.144531 " clip-rule="nonzero"/></clipPath><clipPath id="36a9d8e9c7"><rect x="0" width="71" y="0" height="70"/></clipPath><clipPath id="cfc46519db"><path d="M 67 8 L 138 8 L 138 78 L 67 78 Z M 67 8 " clip-rule="nonzero"/></clipPath><clipPath id="31fb9f3600"><path d="M 119.746094 0.3125 L 145.035156 59.769531 L 85.574219 85.0625 L 60.285156 25.601562 Z M 119.746094 0.3125 " clip-rule="nonzero"/></clipPath><clipPath id="629da41e84"><path d="M 129.003906 22.726562 L 135.410156 37.785156 C 137.902344 43.640625 137.964844 50.25 135.582031 56.152344 C 133.203125 62.054688 128.574219 66.769531 122.71875 69.261719 L 107.660156 75.667969 C 101.804688 78.160156 95.195312 78.222656 89.292969 75.839844 C 83.390625 73.460938 78.671875 68.832031 76.183594 62.976562 L 69.777344 47.917969 C 67.285156 42.0625 67.222656 35.453125 69.605469 29.550781 C 71.984375 23.648438 76.613281 18.929688 82.46875 16.4375 L 97.527344 10.035156 C 103.382812 7.542969 109.992188 7.480469 115.894531 9.859375 C 121.796875 12.242188 126.515625 16.871094 129.003906 22.726562 Z M 129.003906 22.726562 " clip-rule="nonzero"/></clipPath><clipPath id="4d0eca0fce"><path d="M 0.160156 0 L 71 0 L 71 70 L 0.160156 70 Z M 0.160156 0 " clip-rule="nonzero"/></clipPath><clipPath id="f4e65c3b57"><path d="M 52.746094 -7.6875 L 78.035156 51.769531 L 18.574219 77.0625 L -6.714844 17.601562 Z M 52.746094 -7.6875 " clip-rule="nonzero"/></clipPath><clipPath id="d0a3f336ad"><path d="M 62.003906 14.726562 L 68.410156 29.785156 C 70.902344 35.640625 70.964844 42.25 68.582031 48.152344 C 66.203125 54.054688 61.574219 58.769531 55.71875 61.261719 L 40.660156 67.667969 C 34.804688 70.160156 28.195312 70.222656 22.292969 67.839844 C 16.390625 65.460938 11.671875 60.832031 9.183594 54.976562 L 2.777344 39.917969 C 0.285156 34.0625 0.222656 27.453125 2.605469 21.550781 C 4.984375 15.648438 9.613281 10.929688 15.46875 8.4375 L 30.527344 2.035156 C 36.382812 -0.457031 42.992188 -0.519531 48.894531 1.859375 C 54.796875 4.242188 59.515625 8.871094 62.003906 14.726562 Z M 62.003906 14.726562 " clip-rule="nonzero"/></clipPath><clipPath id="2bded59b4f"><rect x="0" width="71" y="0" height="70"/></clipPath><clipPath id="e5c4e687ff"><path d="M 72 30 L 158 30 L 158 115 L 72 115 Z M 72 30 " clip-rule="nonzero"/></clipPath><clipPath id="fc53af22a6"><path d="M 132.207031 30.253906 L 157.398438 89.484375 L 98.171875 114.675781 L 72.980469 55.445312 Z M 132.207031 30.253906 " clip-rule="nonzero"/></clipPath><clipPath id="9b9cb855ff"><path d="M 0.921875 0.238281 L 85.398438 0.238281 L 85.398438 84.71875 L 0.921875 84.71875 Z M 0.921875 0.238281 " clip-rule="nonzero"/></clipPath><clipPath id="e5f61b0361"><path d="M 60.207031 0.253906 L 85.398438 59.484375 L 26.171875 84.675781 L 0.980469 25.445312 Z M 60.207031 0.253906 " clip-rule="nonzero"/></clipPath><clipPath id="72d396f3f4"><rect x="0" width="86" y="0" height="85"/></clipPath><clipPath id="332df0e6c8"><path d="M 55 72 L 141 72 L 141 157 L 55 157 Z M 55 72 " clip-rule="nonzero"/></clipPath><clipPath id="d0c36051c0"><path d="M 55.960938 97.65625 L 115.191406 72.464844 L 140.382812 131.691406 L 81.152344 156.882812 Z M 55.960938 97.65625 " clip-rule="nonzero"/></clipPath><clipPath id="023c474338"><path d="M 0.878906 0.238281 L 85.601562 0.238281 L 85.601562 84.960938 L 0.878906 84.960938 Z M 0.878906 0.238281 " clip-rule="nonzero"/></clipPath><clipPath id="94d1221ba6"><path d="M 0.960938 25.65625 L 60.191406 0.464844 L 85.382812 59.691406 L 26.152344 84.882812 Z M 0.960938 25.65625 " clip-rule="nonzero"/></clipPath><clipPath id="ad458b2f52"><rect x="0" width="86" y="0" height="85"/></clipPath><clipPath id="1a57a57316"><rect x="0" width="170" y="0" height="170"/></clipPath><clipPath id="7bd89c3736"><path d="M 67 7 L 137 7 L 137 77 L 67 77 Z M 67 7 " clip-rule="nonzero"/></clipPath><clipPath id="10938a24c4"><path d="M 59.539062 25.058594 L 119 -0.234375 L 144.289062 59.226562 L 84.828125 84.515625 Z M 59.539062 25.058594 " clip-rule="nonzero"/></clipPath><clipPath id="c3d9719912"><path d="M 81.953125 15.796875 L 97.011719 9.390625 C 102.867188 6.902344 109.476562 6.839844 115.378906 9.21875 C 121.28125 11.597656 126 16.226562 128.492188 22.082031 L 134.894531 37.140625 C 137.386719 43 137.449219 49.605469 135.070312 55.507812 C 132.6875 61.414062 128.0625 66.128906 122.203125 68.621094 L 107.144531 75.023438 C 101.289062 77.515625 94.679688 77.578125 88.777344 75.199219 C 82.875 72.816406 78.160156 68.191406 75.667969 62.332031 L 69.261719 47.277344 C 66.769531 41.417969 66.707031 34.8125 69.089844 28.90625 C 71.46875 23.003906 76.097656 18.289062 81.953125 15.796875 Z M 81.953125 15.796875 " clip-rule="nonzero"/></clipPath><clipPath id="21b1cd400a"><path d="M 0 0 L 70 0 L 70 70 L 0 70 Z M 0 0 " clip-rule="nonzero"/></clipPath><clipPath id="a3b1d98b48"><path d="M -7.460938 18.058594 L 52 -7.234375 L 77.289062 52.226562 L 17.828125 77.515625 Z M -7.460938 18.058594 " clip-rule="nonzero"/></clipPath><clipPath id="1fad9bcb59"><path d="M 14.953125 8.796875 L 30.011719 2.390625 C 35.867188 -0.0976562 42.476562 -0.160156 48.378906 2.21875 C 54.28125 4.597656 59 9.226562 61.492188 15.082031 L 67.894531 30.140625 C 70.386719 36 70.449219 42.605469 68.070312 48.507812 C 65.6875 54.414062 61.0625 59.128906 55.203125 61.621094 L 40.144531 68.023438 C 34.289062 70.515625 27.679688 70.578125 21.777344 68.199219 C 15.875 65.816406 11.160156 61.191406 8.667969 55.332031 L 2.261719 40.277344 C -0.230469 34.417969 -0.292969 27.8125 2.089844 21.90625 C 4.46875 16.003906 9.097656 11.289062 14.953125 8.796875 Z M 14.953125 8.796875 " clip-rule="nonzero"/></clipPath><clipPath id="31691bc8bf"><rect x="0" width="70" y="0" height="70"/></clipPath><clipPath id="5093eea4bb"><path d="M 92 66 L 162 66 L 162 137 L 92 137 Z M 92 66 " clip-rule="nonzero"/></clipPath><clipPath id="9afa074824"><path d="M 84.730469 84.285156 L 144.191406 58.996094 L 169.480469 118.453125 L 110.019531 143.742188 Z M 84.730469 84.285156 " clip-rule="nonzero"/></clipPath><clipPath id="8a24d43cf3"><path d="M 107.144531 75.023438 L 122.203125 68.621094 C 128.0625 66.128906 134.667969 66.066406 140.570312 68.445312 C 146.476562 70.828125 151.191406 75.453125 153.683594 81.3125 L 160.085938 96.367188 C 162.578125 102.226562 162.640625 108.832031 160.261719 114.738281 C 157.878906 120.640625 153.253906 125.355469 147.394531 127.847656 L 132.335938 134.253906 C 126.480469 136.742188 119.875 136.804688 113.96875 134.425781 C 108.066406 132.046875 103.351562 127.417969 100.859375 121.558594 L 94.453125 106.503906 C 91.964844 100.644531 91.902344 94.039062 94.28125 88.136719 C 96.660156 82.230469 101.289062 77.515625 107.144531 75.023438 Z M 107.144531 75.023438 " clip-rule="nonzero"/></clipPath><clipPath id="d5815c16d5"><path d="M 0 0 L 70 0 L 70 71 L 0 71 Z M 0 0 " clip-rule="nonzero"/></clipPath><clipPath id="6589bbc0e0"><path d="M -7.269531 18.285156 L 52.191406 -7.003906 L 77.480469 52.453125 L 18.019531 77.742188 Z M -7.269531 18.285156 " clip-rule="nonzero"/></clipPath><clipPath id="334096f24b"><path d="M 15.144531 9.023438 L 30.203125 2.621094 C 36.0625 0.128906 42.667969 0.0664062 48.570312 2.445312 C 54.476562 4.828125 59.191406 9.453125 61.683594 15.3125 L 68.085938 30.367188 C 70.578125 36.226562 70.640625 42.832031 68.261719 48.738281 C 65.878906 54.640625 61.253906 59.355469 55.394531 61.847656 L 40.335938 68.253906 C 34.480469 70.742188 27.875 70.804688 21.96875 68.425781 C 16.066406 66.046875 11.351562 61.417969 8.859375 55.558594 L 2.453125 40.503906 C -0.0351562 34.644531 -0.0976562 28.039062 2.28125 22.136719 C 4.660156 16.230469 9.289062 11.515625 15.144531 9.023438 Z M 15.144531 9.023438 " clip-rule="nonzero"/></clipPath><clipPath id="50abb642c6"><rect x="0" width="70" y="0" height="71"/></clipPath><clipPath id="77c6f97dda"><path d="M 8 32 L 78 32 L 78 103 L 8 103 Z M 8 32 " clip-rule="nonzero"/></clipPath><clipPath id="c4547137b1"><path d="M 0.3125 50.25 L 59.769531 24.957031 L 85.0625 84.417969 L 25.601562 109.707031 Z M 0.3125 50.25 " clip-rule="nonzero"/></clipPath><clipPath id="0adc405ae4"><path d="M 22.726562 40.988281 L 37.785156 34.582031 C 43.640625 32.09375 50.25 32.03125 56.152344 34.410156 C 62.054688 36.789062 66.769531 41.417969 69.261719 47.277344 L 75.667969 62.332031 C 78.160156 68.191406 78.222656 74.796875 75.839844 80.699219 C 73.460938 86.605469 68.832031 91.320312 62.976562 93.8125 L 47.917969 100.214844 C 42.0625 102.707031 35.453125 102.769531 29.550781 100.390625 C 23.648438 98.007812 18.929688 93.382812 16.4375 87.523438 L 10.035156 72.46875 C 7.542969 66.609375 7.480469 60.003906 9.859375 54.097656 C 12.242188 48.195312 16.871094 43.480469 22.726562 40.988281 Z M 22.726562 40.988281 " clip-rule="nonzero"/></clipPath><clipPath id="182ba4d2d7"><path d="M 0 0 L 70 0 L 70 70.960938 L 0 70.960938 Z M 0 0 " clip-rule="nonzero"/></clipPath><clipPath id="ec159fc9b6"><path d="M -7.6875 18.25 L 51.769531 -7.042969 L 77.0625 52.417969 L 17.601562 77.707031 Z M -7.6875 18.25 " clip-rule="nonzero"/></clipPath><clipPath id="dec69fb425"><path d="M 14.726562 8.988281 L 29.785156 2.582031 C 35.640625 0.09375 42.25 0.03125 48.152344 2.410156 C 54.054688 4.789062 58.769531 9.417969 61.261719 15.277344 L 67.667969 30.332031 C 70.160156 36.191406 70.222656 42.796875 67.839844 48.699219 C 65.460938 54.605469 60.832031 59.320312 54.976562 61.8125 L 39.917969 68.214844 C 34.0625 70.707031 27.453125 70.769531 21.550781 68.390625 C 15.648438 66.007812 10.929688 61.382812 8.4375 55.523438 L 2.035156 40.46875 C -0.457031 34.609375 -0.519531 28.003906 1.859375 22.097656 C 4.242188 16.195312 8.871094 11.480469 14.726562 8.988281 Z M 14.726562 8.988281 " clip-rule="nonzero"/></clipPath><clipPath id="6155dbf6fc"><rect x="0" width="70" y="0" height="71"/></clipPath><clipPath id="5f3ea616fd"><path d="M 30 12 L 115 12 L 115 98 L 30 98 Z M 30 12 " clip-rule="nonzero"/></clipPath><clipPath id="a94353fe12"><path d="M 30.253906 37.785156 L 89.484375 12.59375 L 114.675781 71.820312 L 55.445312 97.015625 Z M 30.253906 37.785156 " clip-rule="nonzero"/></clipPath><clipPath id="6d2597833c"><path d="M 0.238281 0.480469 L 84.71875 0.480469 L 84.71875 85.199219 L 0.238281 85.199219 Z M 0.238281 0.480469 " clip-rule="nonzero"/></clipPath><clipPath id="f597dcaf1d"><path d="M 0.253906 25.785156 L 59.484375 0.59375 L 84.675781 59.820312 L 25.445312 85.015625 Z M 0.253906 25.785156 " clip-rule="nonzero"/></clipPath><clipPath id="e009f54967"><rect x="0" width="85" y="0" height="86"/></clipPath><clipPath id="72b8b2c75a"><path d="M 72 29 L 157 29 L 157 115 L 72 115 Z M 72 29 " clip-rule="nonzero"/></clipPath><clipPath id="b3ec9bfb6a"><path d="M 97.65625 114.03125 L 72.464844 54.804688 L 131.691406 29.613281 L 156.882812 88.839844 Z M 97.65625 114.03125 " clip-rule="nonzero"/></clipPath><clipPath id="1bc6138bad"><path d="M 0.238281 0.519531 L 84.960938 0.519531 L 84.960938 85.238281 L 0.238281 85.238281 Z M 0.238281 0.519531 " clip-rule="nonzero"/></clipPath><clipPath id="12af3da6c6"><path d="M 25.65625 85.03125 L 0.464844 25.804688 L 59.691406 0.613281 L 84.882812 59.839844 Z M 25.65625 85.03125 " clip-rule="nonzero"/></clipPath><clipPath id="060f5e3865"><rect x="0" width="85" y="0" height="86"/></clipPath><clipPath id="8481e5d816"><rect x="0" width="170" y="0" height="169"/></clipPath><clipPath id="2bed50af63"><path d="M 7 33 L 77 33 L 77 103 L 7 103 Z M 7 33 " clip-rule="nonzero"/></clipPath><clipPath id="ba133721b7"><path d="M 25.058594 110.453125 L -0.234375 50.996094 L 59.226562 25.703125 L 84.515625 85.164062 Z M 25.058594 110.453125 " clip-rule="nonzero"/></clipPath><clipPath id="eee1b3188c"><path d="M 15.796875 88.039062 L 9.390625 72.980469 C 6.902344 67.125 6.839844 60.515625 9.21875 54.613281 C 11.597656 48.710938 16.226562 43.996094 22.082031 41.503906 L 37.140625 35.097656 C 43 32.605469 49.605469 32.542969 55.507812 34.925781 C 61.414062 37.304688 66.128906 41.933594 68.621094 47.789062 L 75.023438 62.847656 C 77.515625 68.703125 77.578125 75.3125 75.199219 81.214844 C 72.816406 87.117188 68.191406 91.835938 62.332031 94.328125 L 47.277344 100.730469 C 41.417969 103.222656 34.8125 103.285156 28.90625 100.90625 C 23.003906 98.523438 18.289062 93.898438 15.796875 88.039062 Z M 15.796875 88.039062 " clip-rule="nonzero"/></clipPath><clipPath id="554a992279"><path d="M 0 0 L 70 0 L 70 70 L 0 70 Z M 0 0 " clip-rule="nonzero"/></clipPath><clipPath id="96e8ec100e"><path d="M 18.058594 77.453125 L -7.234375 17.996094 L 52.226562 -7.296875 L 77.515625 52.164062 Z M 18.058594 77.453125 " clip-rule="nonzero"/></clipPath><clipPath id="b126afad66"><path d="M 8.796875 55.039062 L 2.390625 39.980469 C -0.0976562 34.125 -0.160156 27.515625 2.21875 21.613281 C 4.597656 15.710938 9.226562 10.996094 15.082031 8.503906 L 30.140625 2.097656 C 36 -0.394531 42.605469 -0.457031 48.507812 1.925781 C 54.414062 4.304688 59.128906 8.933594 61.621094 14.789062 L 68.023438 29.847656 C 70.515625 35.703125 70.578125 42.3125 68.199219 48.214844 C 65.816406 54.117188 61.191406 58.835938 55.332031 61.328125 L 40.277344 67.730469 C 34.417969 70.222656 27.8125 70.285156 21.90625 67.90625 C 16.003906 65.523438 11.289062 60.898438 8.796875 55.039062 Z M 8.796875 55.039062 " clip-rule="nonzero"/></clipPath><clipPath id="3a6736ec40"><rect x="0" width="70" y="0" height="70"/></clipPath><clipPath id="47a392a0b6"><path d="M 66 7 L 137 7 L 137 78 L 66 78 Z M 66 7 " clip-rule="nonzero"/></clipPath><clipPath id="a577fc6404"><path d="M 84.285156 85.261719 L 58.996094 25.804688 L 118.453125 0.511719 L 143.742188 59.972656 Z M 84.285156 85.261719 " clip-rule="nonzero"/></clipPath><clipPath id="d9fccc2333"><path d="M 75.023438 62.847656 L 68.621094 47.789062 C 66.128906 41.933594 66.066406 35.324219 68.445312 29.421875 C 70.828125 23.519531 75.453125 18.800781 81.3125 16.3125 L 96.367188 9.90625 C 102.226562 7.414062 108.832031 7.351562 114.738281 9.734375 C 120.640625 12.113281 125.355469 16.742188 127.847656 22.597656 L 134.253906 37.65625 C 136.742188 43.511719 136.804688 50.121094 134.425781 56.023438 C 132.046875 61.925781 127.417969 66.644531 121.558594 69.132812 L 106.503906 75.539062 C 100.644531 78.03125 94.039062 78.09375 88.136719 75.710938 C 82.230469 73.332031 77.515625 68.703125 75.023438 62.847656 Z M 75.023438 62.847656 " clip-rule="nonzero"/></clipPath><clipPath id="90ed827658"><path d="M 0 0.160156 L 71 0.160156 L 71 71 L 0 71 Z M 0 0.160156 " clip-rule="nonzero"/></clipPath><clipPath id="b0a5a667cc"><path d="M 18.285156 78.261719 L -7.003906 18.804688 L 52.453125 -6.488281 L 77.742188 52.972656 Z M 18.285156 78.261719 " clip-rule="nonzero"/></clipPath><clipPath id="c81241fc11"><path d="M 9.023438 55.847656 L 2.621094 40.789062 C 0.128906 34.933594 0.0664062 28.324219 2.445312 22.421875 C 4.828125 16.519531 9.453125 11.800781 15.3125 9.3125 L 30.367188 2.90625 C 36.226562 0.414062 42.832031 0.351562 48.738281 2.734375 C 54.640625 5.113281 59.355469 9.742188 61.847656 15.597656 L 68.253906 30.65625 C 70.742188 36.511719 70.804688 43.121094 68.425781 49.023438 C 66.046875 54.925781 61.417969 59.644531 55.558594 62.132812 L 40.503906 68.539062 C 34.644531 71.03125 28.039062 71.09375 22.136719 68.710938 C 16.230469 66.332031 11.515625 61.703125 9.023438 55.847656 Z M 9.023438 55.847656 " clip-rule="nonzero"/></clipPath><clipPath id="7cc1b59758"><rect x="0" width="71" y="0" height="71"/></clipPath><clipPath id="7511b6ac50"><path d="M 32 92 L 103 92 L 103 162 L 32 162 Z M 32 92 " clip-rule="nonzero"/></clipPath><clipPath id="f633c6efc6"><path d="M 50.25 169.683594 L 24.957031 110.222656 L 84.417969 84.933594 L 109.707031 144.390625 Z M 50.25 169.683594 " clip-rule="nonzero"/></clipPath><clipPath id="7859b4b6a3"><path d="M 40.988281 147.265625 L 34.582031 132.210938 C 32.09375 126.351562 32.03125 119.746094 34.410156 113.839844 C 36.789062 107.9375 41.417969 103.222656 47.277344 100.730469 L 62.332031 94.328125 C 68.191406 91.835938 74.796875 91.773438 80.699219 94.152344 C 86.605469 96.53125 91.320312 101.160156 93.8125 107.019531 L 100.214844 122.074219 C 102.707031 127.933594 102.769531 134.539062 100.390625 140.441406 C 98.007812 146.347656 93.382812 151.0625 87.523438 153.554688 L 72.46875 159.957031 C 66.609375 162.449219 60.003906 162.511719 54.097656 160.132812 C 48.195312 157.753906 43.480469 153.125 40.988281 147.265625 Z M 40.988281 147.265625 " clip-rule="nonzero"/></clipPath><clipPath id="70a35f8708"><path d="M 0 0 L 70.960938 0 L 70.960938 70 L 0 70 Z M 0 0 " clip-rule="nonzero"/></clipPath><clipPath id="8e9e98dc1f"><path d="M 18.25 77.683594 L -7.042969 18.222656 L 52.417969 -7.066406 L 77.707031 52.390625 Z M 18.25 77.683594 " clip-rule="nonzero"/></clipPath><clipPath id="3a31631315"><path d="M 8.988281 55.265625 L 2.582031 40.210938 C 0.09375 34.351562 0.03125 27.746094 2.410156 21.839844 C 4.789062 15.9375 9.417969 11.222656 15.277344 8.730469 L 30.332031 2.328125 C 36.191406 -0.164062 42.796875 -0.226562 48.699219 2.152344 C 54.605469 4.53125 59.320312 9.160156 61.8125 15.019531 L 68.214844 30.074219 C 70.707031 35.933594 70.769531 42.539062 68.390625 48.441406 C 66.007812 54.347656 61.382812 59.0625 55.523438 61.554688 L 40.46875 67.957031 C 34.609375 70.449219 28.003906 70.511719 22.097656 68.132812 C 16.195312 65.753906 11.480469 61.125 8.988281 55.265625 Z M 8.988281 55.265625 " clip-rule="nonzero"/></clipPath><clipPath id="219c660651"><rect x="0" width="71" y="0" height="70"/></clipPath><clipPath id="9ce5cbe16d"><path d="M 12 55 L 98 55 L 98 140 L 12 140 Z M 12 55 " clip-rule="nonzero"/></clipPath><clipPath id="6a8d5947b1"><path d="M 37.785156 139.738281 L 12.59375 80.511719 L 71.820312 55.320312 L 97.015625 114.546875 Z M 37.785156 139.738281 " clip-rule="nonzero"/></clipPath><clipPath id="b075ce0232"><path d="M 0.480469 0.160156 L 85.199219 0.160156 L 85.199219 84.878906 L 0.480469 84.878906 Z M 0.480469 0.160156 " clip-rule="nonzero"/></clipPath><clipPath id="bbb60e3829"><path d="M 25.785156 84.738281 L 0.59375 25.511719 L 59.820312 0.320312 L 85.015625 59.546875 Z M 25.785156 84.738281 " clip-rule="nonzero"/></clipPath><clipPath id="ad9ba0cf14"><rect x="0" width="86" y="0" height="85"/></clipPath><clipPath id="2f3467e89b"><path d="M 29 13 L 115 13 L 115 98 L 29 98 Z M 29 13 " clip-rule="nonzero"/></clipPath><clipPath id="2b5f812d1c"><path d="M 114.03125 72.335938 L 54.804688 97.527344 L 29.613281 38.300781 L 88.839844 13.109375 Z M 114.03125 72.335938 " clip-rule="nonzero"/></clipPath><clipPath id="f3f3c47e56"><path d="M 0.519531 0 L 85.238281 0 L 85.238281 84.640625 L 0.519531 84.640625 Z M 0.519531 0 " clip-rule="nonzero"/></clipPath><clipPath id="6e4f7ef977"><path d="M 85.03125 59.335938 L 25.804688 84.527344 L 0.613281 25.300781 L 59.839844 0.109375 Z M 85.03125 59.335938 " clip-rule="nonzero"/></clipPath><clipPath id="e42d661644"><rect x="0" width="86" y="0" height="85"/></clipPath><clipPath id="cf92ecc0dd"><rect x="0" width="169" y="0" height="170"/></clipPath><clipPath id="45cbc89b0f"><path d="M 33 93 L 103 93 L 103 163 L 33 163 Z M 33 93 " clip-rule="nonzero"/></clipPath><clipPath id="d83aff0a85"><path d="M 110.453125 144.9375 L 50.996094 170.226562 L 25.703125 110.765625 L 85.164062 85.476562 Z M 110.453125 144.9375 " clip-rule="nonzero"/></clipPath><clipPath id="58e438c5fb"><path d="M 88.039062 154.195312 L 72.980469 160.601562 C 67.125 163.09375 60.515625 163.15625 54.613281 160.773438 C 48.710938 158.394531 43.996094 153.765625 41.503906 147.910156 L 35.097656 132.851562 C 32.605469 126.996094 32.542969 120.386719 34.925781 114.484375 C 37.304688 108.582031 41.933594 103.863281 47.789062 101.375 L 62.847656 94.96875 C 68.703125 92.476562 75.3125 92.414062 81.214844 94.796875 C 87.117188 97.175781 91.835938 101.804688 94.328125 107.660156 L 100.730469 122.71875 C 103.222656 128.574219 103.285156 135.183594 100.90625 141.085938 C 98.523438 146.988281 93.898438 151.707031 88.039062 154.195312 Z M 88.039062 154.195312 " clip-rule="nonzero"/></clipPath><clipPath id="f94882b2f6"><path d="M 0 0 L 70 0 L 70 70 L 0 70 Z M 0 0 " clip-rule="nonzero"/></clipPath><clipPath id="872a00b1a2"><path d="M 77.453125 51.9375 L 17.996094 77.226562 L -7.296875 17.765625 L 52.164062 -7.523438 Z M 77.453125 51.9375 " clip-rule="nonzero"/></clipPath><clipPath id="197e326bc5"><path d="M 55.039062 61.195312 L 39.980469 67.601562 C 34.125 70.09375 27.515625 70.15625 21.613281 67.773438 C 15.710938 65.394531 10.996094 60.765625 8.503906 54.910156 L 2.097656 39.851562 C -0.394531 33.996094 -0.457031 27.386719 1.925781 21.484375 C 4.304688 15.582031 8.933594 10.863281 14.789062 8.375 L 29.847656 1.96875 C 35.703125 -0.523438 42.3125 -0.585938 48.214844 1.796875 C 54.117188 4.175781 58.835938 8.804688 61.328125 14.660156 L 67.730469 29.71875 C 70.222656 35.574219 70.285156 42.183594 67.90625 48.085938 C 65.523438 53.988281 60.898438 58.707031 55.039062 61.195312 Z M 55.039062 61.195312 " clip-rule="nonzero"/></clipPath><clipPath id="398fb314d0"><rect x="0" width="70" y="0" height="70"/></clipPath><clipPath id="412410b6af"><path d="M 7 33 L 78 33 L 78 104 L 7 104 Z M 7 33 " clip-rule="nonzero"/></clipPath><clipPath id="5735dfdabb"><path d="M 85.261719 85.707031 L 25.804688 111 L 0.511719 51.539062 L 59.972656 26.25 Z M 85.261719 85.707031 " clip-rule="nonzero"/></clipPath><clipPath id="01f26dc678"><path d="M 62.847656 94.96875 L 47.789062 101.375 C 41.933594 103.863281 35.324219 103.925781 29.421875 101.546875 C 23.519531 99.167969 18.804688 94.539062 16.3125 88.683594 L 9.90625 73.625 C 7.414062 67.765625 7.351562 61.160156 9.734375 55.257812 C 12.113281 49.351562 16.742188 44.636719 22.597656 42.144531 L 37.65625 35.742188 C 43.511719 33.25 50.121094 33.1875 56.023438 35.566406 C 61.925781 37.949219 66.644531 42.574219 69.132812 48.433594 L 75.539062 63.492188 C 78.03125 69.347656 78.09375 75.953125 75.710938 81.859375 C 73.332031 87.761719 68.703125 92.476562 62.847656 94.96875 Z M 62.847656 94.96875 " clip-rule="nonzero"/></clipPath><clipPath id="6c96668e53"><path d="M 0.160156 0.078125 L 71 0.078125 L 71 71 L 0.160156 71 Z M 0.160156 0.078125 " clip-rule="nonzero"/></clipPath><clipPath id="74d6fa0542"><path d="M 78.261719 52.707031 L 18.804688 78 L -6.488281 18.539062 L 52.972656 -6.75 Z M 78.261719 52.707031 " clip-rule="nonzero"/></clipPath><clipPath id="8efef2219b"><path d="M 55.847656 61.96875 L 40.789062 68.375 C 34.933594 70.863281 28.324219 70.925781 22.421875 68.546875 C 16.519531 66.167969 11.804688 61.539062 9.3125 55.683594 L 2.90625 40.625 C 0.414062 34.765625 0.351562 28.160156 2.734375 22.257812 C 5.113281 16.351562 9.742188 11.636719 15.597656 9.144531 L 30.65625 2.742188 C 36.511719 0.25 43.121094 0.1875 49.023438 2.566406 C 54.925781 4.949219 59.644531 9.574219 62.132812 15.433594 L 68.539062 30.492188 C 71.03125 36.347656 71.09375 42.953125 68.710938 48.859375 C 66.332031 54.761719 61.703125 59.476562 55.847656 61.96875 Z M 55.847656 61.96875 " clip-rule="nonzero"/></clipPath><clipPath id="70172b058a"><rect x="0" width="71" y="0" height="71"/></clipPath><clipPath id="e67c2884e2"><path d="M 92 67 L 162 67 L 162 138 L 92 138 Z M 92 67 " clip-rule="nonzero"/></clipPath><clipPath id="633d8ab43f"><path d="M 169.683594 119.746094 L 110.222656 145.035156 L 84.933594 85.574219 L 144.390625 60.285156 Z M 169.683594 119.746094 " clip-rule="nonzero"/></clipPath><clipPath id="ef4d6a05de"><path d="M 147.265625 129.003906 L 132.210938 135.410156 C 126.351562 137.902344 119.746094 137.964844 113.839844 135.582031 C 107.9375 133.203125 103.222656 128.574219 100.730469 122.71875 L 94.328125 107.660156 C 91.835938 101.804688 91.773438 95.195312 94.152344 89.292969 C 96.53125 83.390625 101.160156 78.671875 107.019531 76.183594 L 122.074219 69.777344 C 127.933594 67.285156 134.539062 67.222656 140.441406 69.605469 C 146.347656 71.984375 151.0625 76.613281 153.554688 82.46875 L 159.957031 97.527344 C 162.449219 103.382812 162.511719 109.992188 160.132812 115.894531 C 157.753906 121.796875 153.125 126.515625 147.265625 129.003906 Z M 147.265625 129.003906 " clip-rule="nonzero"/></clipPath><clipPath id="63c39a9492"><path d="M 0 0.160156 L 70 0.160156 L 70 71 L 0 71 Z M 0 0.160156 " clip-rule="nonzero"/></clipPath><clipPath id="865eb49b25"><path d="M 77.683594 52.746094 L 18.222656 78.035156 L -7.066406 18.574219 L 52.390625 -6.714844 Z M 77.683594 52.746094 " clip-rule="nonzero"/></clipPath><clipPath id="813a221760"><path d="M 55.265625 62.003906 L 40.210938 68.410156 C 34.351562 70.902344 27.746094 70.964844 21.839844 68.582031 C 15.9375 66.203125 11.222656 61.574219 8.730469 55.71875 L 2.328125 40.660156 C -0.164062 34.804688 -0.226562 28.195312 2.152344 22.292969 C 4.53125 16.390625 9.160156 11.671875 15.019531 9.183594 L 30.074219 2.777344 C 35.933594 0.285156 42.539062 0.222656 48.441406 2.605469 C 54.347656 4.984375 59.0625 9.613281 61.554688 15.46875 L 67.957031 30.527344 C 70.449219 36.382812 70.511719 42.992188 68.132812 48.894531 C 65.753906 54.796875 61.125 59.515625 55.265625 62.003906 Z M 55.265625 62.003906 " clip-rule="nonzero"/></clipPath><clipPath id="394c8a58ba"><rect x="0" width="70" y="0" height="71"/></clipPath><clipPath id="5f64ed6ca7"><path d="M 55 72 L 140 72 L 140 158 L 55 158 Z M 55 72 " clip-rule="nonzero"/></clipPath><clipPath id="c662332b27"><path d="M 139.738281 132.207031 L 80.511719 157.398438 L 55.320312 98.171875 L 114.546875 72.980469 Z M 139.738281 132.207031 " clip-rule="nonzero"/></clipPath><clipPath id="b90c488034"><path d="M 0.160156 0.921875 L 84.878906 0.921875 L 84.878906 85.398438 L 0.160156 85.398438 Z M 0.160156 0.921875 " clip-rule="nonzero"/></clipPath><clipPath id="3ee52a3ac9"><path d="M 84.738281 60.207031 L 25.511719 85.398438 L 0.320312 26.171875 L 59.546875 0.980469 Z M 84.738281 60.207031 " clip-rule="nonzero"/></clipPath><clipPath id="6790632f2f"><rect x="0" width="85" y="0" height="86"/></clipPath><clipPath id="b41083e290"><path d="M 13 55 L 98 55 L 98 141 L 13 141 Z M 13 55 " clip-rule="nonzero"/></clipPath><clipPath id="7c5c13622d"><path d="M 72.335938 55.960938 L 97.527344 115.191406 L 38.300781 140.382812 L 13.109375 81.152344 Z M 72.335938 55.960938 " clip-rule="nonzero"/></clipPath><clipPath id="73d71e1bae"><path d="M 0 0.878906 L 84.640625 0.878906 L 84.640625 85.601562 L 0 85.601562 Z M 0 0.878906 " clip-rule="nonzero"/></clipPath><clipPath id="cb27cf2080"><path d="M 59.335938 0.960938 L 84.527344 60.191406 L 25.300781 85.382812 L 0.109375 26.152344 Z M 59.335938 0.960938 " clip-rule="nonzero"/></clipPath><clipPath id="1c52a3df0b"><rect x="0" width="85" y="0" height="86"/></clipPath><clipPath id="66b9d95de9"><rect x="0" width="170" y="0" height="170"/></clipPath></defs><g transform="matrix(1, 0, 0, 1, 205, 144)"><g clip-path="url(#1a57a57316)"><g clip-path="url(#edacf26416)"><g clip-path="url(#e5d55fa6e4)"><g clip-path="url(#b9ff1ca602)"><g transform="matrix(1, 0, 0, 1, 93, 67)"><g clip-path="url(#6a2db03aa4)"><g clip-path="url(#5f59f91cbe)"><g clip-path="url(#f4db64c44e)"><g clip-path="url(#30ce16e184)"><path fill="#9333ea" d="M 51.804688 -7.132812 L 76.996094 52.097656 L 17.765625 77.289062 L -7.425781 18.0625 Z M 51.804688 -7.132812 " fill-opacity="1" fill-rule="nonzero"/></g></g></g></g></g></g></g></g><g clip-path="url(#6e65cd6318)"><g clip-path="url(#b772cdde45)"><g clip-path="url(#99fa3e07d6)"><g transform="matrix(1, 0, 0, 1, 33, 92)"><g clip-path="url(#36a9d8e9c7)"><g clip-path="url(#93cfec5979)"><g clip-path="url(#a11dc0218f)"><g clip-path="url(#6564f70f1e)"><path fill="#9333ea" d="M 52.574219 -6.9375 L 77.765625 52.289062 L 18.539062 77.480469 L -6.652344 18.253906 Z M 52.574219 -6.9375 " fill-opacity="1" fill-rule="nonzero"/></g></g></g></g></g></g></g></g><g clip-path="url(#cfc46519db)"><g clip-path="url(#31fb9f3600)"><g clip-path="url(#629da41e84)"><g transform="matrix(1, 0, 0, 1, 67, 8)"><g clip-path="url(#2bded59b4f)"><g clip-path="url(#4d0eca0fce)"><g clip-path="url(#f4e65c3b57)"><g clip-path="url(#d0a3f336ad)"><path fill="#9333ea" d="M 52.613281 -7.359375 L 77.804688 51.867188 L 18.574219 77.0625 L -6.617188 17.832031 Z M 52.613281 -7.359375 " fill-opacity="1" fill-rule="nonzero"/></g></g></g></g></g></g></g></g><g clip-path="url(#e5c4e687ff)"><g clip-path="url(#fc53af22a6)"><g transform="matrix(1, 0, 0, 1, 72, 30)"><g clip-path="url(#72d396f3f4)"><g clip-path="url(#9b9cb855ff)"><g clip-path="url(#e5f61b0361)"><path fill="#9333ea" d="M 60.207031 0.253906 L 85.398438 59.484375 L 26.171875 84.675781 L 0.980469 25.445312 Z M 60.207031 0.253906 " fill-opacity="1" fill-rule="nonzero"/></g></g></g></g></g></g><g clip-path="url(#332df0e6c8)"><g clip-path="url(#d0c36051c0)"><g transform="matrix(1, 0, 0, 1, 55, 72)"><g clip-path="url(#ad458b2f52)"><g clip-path="url(#023c474338)"><g clip-path="url(#94d1221ba6)"><path fill="#9333ea" d="M 0.960938 25.65625 L 60.191406 0.464844 L 85.382812 59.691406 L 26.152344 84.882812 Z M 0.960938 25.65625 " fill-opacity="1" fill-rule="nonzero"/></g></g></g></g></g></g></g></g><g transform="matrix(1, 0, 0, 1, 144, 0)"><g clip-path="url(#8481e5d816)"><g clip-path="url(#7bd89c3736)"><g clip-path="url(#10938a24c4)"><g clip-path="url(#c3d9719912)"><g transform="matrix(1, 0, 0, 1, 67, 7)"><g clip-path="url(#31691bc8bf)"><g clip-path="url(#21b1cd400a)"><g clip-path="url(#a3b1d98b48)"><g clip-path="url(#1fad9bcb59)"><path fill="#9333ea" d="M -7.132812 18.191406 L 52.097656 -7 L 77.289062 52.226562 L 18.0625 77.417969 Z M -7.132812 18.191406 " fill-opacity="1" fill-rule="nonzero"/></g></g></g></g></g></g></g></g><g clip-path="url(#5093eea4bb)"><g clip-path="url(#9afa074824)"><g clip-path="url(#8a24d43cf3)"><g transform="matrix(1, 0, 0, 1, 92, 66)"><g clip-path="url(#50abb642c6)"><g clip-path="url(#d5815c16d5)"><g clip-path="url(#6589bbc0e0)"><g clip-path="url(#334096f24b)"><path fill="#9333ea" d="M -6.9375 18.417969 L 52.289062 -6.773438 L 77.480469 52.453125 L 18.253906 77.644531 Z M -6.9375 18.417969 " fill-opacity="1" fill-rule="nonzero"/></g></g></g></g></g></g></g></g><g clip-path="url(#77c6f97dda)"><g clip-path="url(#c4547137b1)"><g clip-path="url(#0adc405ae4)"><g transform="matrix(1, 0, 0, 1, 8, 32)"><g clip-path="url(#6155dbf6fc)"><g clip-path="url(#182ba4d2d7)"><g clip-path="url(#ec159fc9b6)"><g clip-path="url(#dec69fb425)"><path fill="#9333ea" d="M -7.359375 18.382812 L 51.867188 -6.808594 L 77.0625 52.417969 L 17.832031 77.609375 Z M -7.359375 18.382812 " fill-opacity="1" fill-rule="nonzero"/></g></g></g></g></g></g></g></g><g clip-path="url(#5f3ea616fd)"><g clip-path="url(#a94353fe12)"><g transform="matrix(1, 0, 0, 1, 30, 12)"><g clip-path="url(#e009f54967)"><g clip-path="url(#6d2597833c)"><g clip-path="url(#f597dcaf1d)"><path fill="#9333ea" d="M 0.253906 25.785156 L 59.484375 0.59375 L 84.675781 59.820312 L 25.445312 85.015625 Z M 0.253906 25.785156 " fill-opacity="1" fill-rule="nonzero"/></g></g></g></g></g></g><g clip-path="url(#72b8b2c75a)"><g clip-path="url(#b3ec9bfb6a)"><g transform="matrix(1, 0, 0, 1, 72, 29)"><g clip-path="url(#060f5e3865)"><g clip-path="url(#1bc6138bad)"><g clip-path="url(#12af3da6c6)"><path fill="#9333ea" d="M 25.65625 85.03125 L 0.464844 25.804688 L 59.691406 0.613281 L 84.882812 59.839844 Z M 25.65625 85.03125 " fill-opacity="1" fill-rule="nonzero"/></g></g></g></g></g></g></g></g><g transform="matrix(1, 0, 0, 1, 0, 61)"><g clip-path="url(#cf92ecc0dd)"><g clip-path="url(#2bed50af63)"><g clip-path="url(#ba133721b7)"><g clip-path="url(#eee1b3188c)"><g transform="matrix(1, 0, 0, 1, 7, 33)"><g clip-path="url(#3a6736ec40)"><g clip-path="url(#554a992279)"><g clip-path="url(#96e8ec100e)"><g clip-path="url(#b126afad66)"><path fill="#9333ea" d="M 18.191406 77.125 L -7 17.898438 L 52.226562 -7.296875 L 77.417969 51.933594 Z M 18.191406 77.125 " fill-opacity="1" fill-rule="nonzero"/></g></g></g></g></g></g></g></g><g clip-path="url(#47a392a0b6)"><g clip-path="url(#a577fc6404)"><g clip-path="url(#d9fccc2333)"><g transform="matrix(1, 0, 0, 1, 66, 7)"><g clip-path="url(#7cc1b59758)"><g clip-path="url(#90ed827658)"><g clip-path="url(#b0a5a667cc)"><g clip-path="url(#c81241fc11)"><path fill="#9333ea" d="M 18.417969 77.933594 L -6.773438 18.703125 L 52.453125 -6.488281 L 77.644531 52.742188 Z M 18.417969 77.933594 " fill-opacity="1" fill-rule="nonzero"/></g></g></g></g></g></g></g></g><g clip-path="url(#7511b6ac50)"><g clip-path="url(#f633c6efc6)"><g clip-path="url(#7859b4b6a3)"><g transform="matrix(1, 0, 0, 1, 32, 92)"><g clip-path="url(#219c660651)"><g clip-path="url(#70a35f8708)"><g clip-path="url(#8e9e98dc1f)"><g clip-path="url(#3a31631315)"><path fill="#9333ea" d="M 18.382812 77.351562 L -6.808594 18.125 L 52.417969 -7.066406 L 77.609375 52.160156 Z M 18.382812 77.351562 " fill-opacity="1" fill-rule="nonzero"/></g></g></g></g></g></g></g></g><g clip-path="url(#9ce5cbe16d)"><g clip-path="url(#6a8d5947b1)"><g transform="matrix(1, 0, 0, 1, 12, 55)"><g clip-path="url(#ad9ba0cf14)"><g clip-path="url(#b075ce0232)"><g clip-path="url(#bbb60e3829)"><path fill="#9333ea" d="M 25.785156 84.738281 L 0.59375 25.511719 L 59.820312 0.320312 L 85.015625 59.546875 Z M 25.785156 84.738281 " fill-opacity="1" fill-rule="nonzero"/></g></g></g></g></g></g><g clip-path="url(#2f3467e89b)"><g clip-path="url(#2b5f812d1c)"><g transform="matrix(1, 0, 0, 1, 29, 13)"><g clip-path="url(#e42d661644)"><g clip-path="url(#f3f3c47e56)"><g clip-path="url(#6e4f7ef977)"><path fill="#9333ea" d="M 85.03125 59.335938 L 25.804688 84.527344 L 0.613281 25.300781 L 59.839844 0.109375 Z M 85.03125 59.335938 " fill-opacity="1" fill-rule="nonzero"/></g></g></g></g></g></g></g></g><g transform="matrix(1, 0, 0, 1, 61, 205)"><g clip-path="url(#66b9d95de9)"><g clip-path="url(#45cbc89b0f)"><g clip-path="url(#d83aff0a85)"><g clip-path="url(#58e438c5fb)"><g transform="matrix(1, 0, 0, 1, 33, 93)"><g clip-path="url(#398fb314d0)"><g clip-path="url(#f94882b2f6)"><g clip-path="url(#872a00b1a2)"><g clip-path="url(#197e326bc5)"><path fill="#9333ea" d="M 77.125 51.804688 L 17.898438 76.996094 L -7.296875 17.765625 L 51.933594 -7.425781 Z M 77.125 51.804688 " fill-opacity="1" fill-rule="nonzero"/></g></g></g></g></g></g></g></g><g clip-path="url(#412410b6af)"><g clip-path="url(#5735dfdabb)"><g clip-path="url(#01f26dc678)"><g transform="matrix(1, 0, 0, 1, 7, 33)"><g clip-path="url(#70172b058a)"><g clip-path="url(#6c96668e53)"><g clip-path="url(#74d6fa0542)"><g clip-path="url(#8efef2219b)"><path fill="#9333ea" d="M 77.933594 52.574219 L 18.703125 77.765625 L -6.488281 18.539062 L 52.742188 -6.652344 Z M 77.933594 52.574219 " fill-opacity="1" fill-rule="nonzero"/></g></g></g></g></g></g></g></g><g clip-path="url(#e67c2884e2)"><g clip-path="url(#633d8ab43f)"><g clip-path="url(#ef4d6a05de)"><g transform="matrix(1, 0, 0, 1, 92, 67)"><g clip-path="url(#394c8a58ba)"><g clip-path="url(#63c39a9492)"><g clip-path="url(#865eb49b25)"><g clip-path="url(#813a221760)"><path fill="#9333ea" d="M 77.351562 52.613281 L 18.125 77.804688 L -7.066406 18.574219 L 52.160156 -6.617188 Z M 77.351562 52.613281 " fill-opacity="1" fill-rule="nonzero"/></g></g></g></g></g></g></g></g><g clip-path="url(#5f64ed6ca7)"><g clip-path="url(#c662332b27)"><g transform="matrix(1, 0, 0, 1, 55, 72)"><g clip-path="url(#6790632f2f)"><g clip-path="url(#b90c488034)"><g clip-path="url(#3ee52a3ac9)"><path fill="#9333ea" d="M 84.738281 60.207031 L 25.511719 85.398438 L 0.320312 26.171875 L 59.546875 0.980469 Z M 84.738281 60.207031 " fill-opacity="1" fill-rule="nonzero"/></g></g></g></g></g></g><g clip-path="url(#b41083e290)"><g clip-path="url(#7c5c13622d)"><g transform="matrix(1, 0, 0, 1, 13, 55)"><g clip-path="url(#1c52a3df0b)"><g clip-path="url(#73d71e1bae)"><g clip-path="url(#cb27cf2080)"><path fill="#9333ea" d="M 59.335938 0.960938 L 84.527344 60.191406 L 25.300781 85.382812 L 0.109375 26.152344 Z M 59.335938 0.960938 " fill-opacity="1" fill-rule="nonzero"/></g></g></g></g></g></g></g></g></svg>